# xmcd CD database file
#
# Track frame offsets:
#	150
#	24418
#	39406
#	66618
#	87327
#	102387
#	125641
#	153793
#
# Disc length: 2292 seconds
#
# Revision: 0
# Processed by: cddbd v1.5.2PL0 Copyright (c) Steve Scherf et al.
# Submitted via: CDex 1.70beta2
#
DISCID=6508f208
DTITLE=Anja Eline Skybakmoen - We're The Houses
DYEAR=2014
DGENRE=Jazz
TTITLE0=London
TTITLE1=Glorious People
TTITLE2=Silhouette
TTITLE3=We Collided
TTITLE4=Just Like My Father
TTITLE5=We're The Houses
TTITLE6=We Try
TTITLE7=Make Time Pass
EXTD=YEAR: 2014
EXTT0=
EXTT1=
EXTT2=
EXTT3=
EXTT4=
EXTT5=
EXTT6=
EXTT7=
PLAYORDER=
